<?xml version="1.0" encoding="UTF-8"?>
<svg width="796px" height="210px" viewBox="0 0 796 210" version="1.1" xmlns="http://www.w3.org/2000/svg" xmlns:xlink="http://www.w3.org/1999/xlink">
    <title>Artboard Copy</title>
    <g id="Artboard-Copy" stroke="none" stroke-width="1" fill="none" fill-rule="evenodd">
        <g id="AutoLibra" transform="translate(175.1779, 52.21)" fill="#000000" fill-rule="nonzero">
            <path d="M2.84217094e-14,105.79 L38.4932188,0 L51.9032188,0 L90.3941094,105.79 L79.417,105.79 L68.093,74.053 L22.3011094,74.053 L10.9771094,105.79 L2.84217094e-14,105.79 Z M25.7281094,64.219 L64.666,64.219 L45.1982188,9.04010938 L25.7281094,64.219 Z" id="Shape"></path>
            <path d="M121.360102,107.578 C113.512769,107.578 107.229935,104.920833 102.511602,99.6065 C97.7932688,94.2921667 95.4341022,86.9663333 95.4341022,77.629 L95.4341022,26.82 L105.268102,26.82 L105.268102,74.6978906 C105.268102,82.8106302 106.832602,88.8455182 109.961602,92.8025547 C113.090602,96.7595911 117.750732,98.7381094 123.941993,98.7381094 C130.763399,98.7381094 136.144084,96.5194063 140.084047,92.082 C144.024011,87.6445938 145.993993,81.6015573 145.993993,73.9528906 L145.993993,26.82 L155.827993,26.82 L155.827993,105.79 L146.589993,105.79 L146.440993,85.5748906 L147.979883,86.271 C146.655956,93.0256667 143.676344,98.2655 139.041047,101.9905 C134.405751,105.7155 128.512102,107.578 121.360102,107.578 Z" id="Path"></path>
            <path d="M196.080003,105.79 C189.623336,105.79 184.83904,104.275167 181.727113,101.2455 C178.615185,98.2158333 177.059222,93.572 177.059222,87.314 L177.059222,8.344 L186.893222,8.344 L186.893222,87.016 C186.893222,90.7239271 187.729019,93.3228906 189.400613,94.8128906 C191.072206,96.3028906 193.59667,97.0478906 196.974003,97.0478906 L207.306222,97.0478906 L207.306222,105.79 L196.080003,105.79 Z M164.692222,35.5621094 L164.692222,26.82 L207.306222,26.82 L207.306222,35.5621094 L164.692222,35.5621094 Z" id="Shape"></path>
            <path d="M245.174278,107.578 C238.054871,107.578 231.838002,105.889333 226.523668,102.512 C221.209335,99.1346667 217.103687,94.3499818 214.206723,88.1579453 C211.30976,81.9659089 209.861278,74.6815938 209.861278,66.305 C209.861278,57.8616667 211.30976,50.5606667 214.206723,44.402 C217.103687,38.2433333 221.209335,33.4753333 226.523668,30.098 C231.838002,26.7206667 238.054871,25.032 245.174278,25.032 C252.293684,25.032 258.493869,26.7206667 263.774832,30.098 C269.055796,33.4753333 273.14476,38.2433333 276.041723,44.402 C278.938687,50.5606667 280.387168,57.8616667 280.387168,66.305 C280.387168,74.6815938 278.938687,81.9659089 276.041723,88.1579453 C273.14476,94.3499818 269.055796,99.1346667 263.774832,102.512 C258.493869,105.889333 252.293684,107.578 245.174278,107.578 Z M245.174278,98.1421094 C252.954871,98.1421094 259.047187,95.3025729 263.451223,89.6235 C267.85526,83.9444271 270.057278,76.1715938 270.057278,66.305 C270.057278,56.4384062 267.85526,48.6655729 263.451223,42.9865 C259.047187,37.3074271 252.954871,34.4678906 245.174278,34.4678906 C237.393684,34.4678906 231.284684,37.3074271 226.847278,42.9865 C222.409871,48.6655729 220.191168,56.4384062 220.191168,66.305 C220.191168,76.1715938 222.409871,83.9444271 226.847278,89.6235 C231.284684,95.3025729 237.393684,98.1421094 245.174278,98.1421094 Z" id="Shape"></path>
            <polygon id="Path" points="293.571634 105.79 293.571634 0 303.703634 0 303.703634 100.772891 299.084634 95.956 357.939634 95.956 357.939634 105.79"></polygon>
            <path d="M361.290926,105.79 L361.290926,26.82 L371.124926,26.82 L371.124926,105.79 L361.290926,105.79 Z M360.992926,13.708 L360.992926,0.447 L371.422926,0.447 L371.422926,13.708 L360.992926,13.708 Z" id="Shape"></path>
            <path d="M420.119092,107.578 C414.191685,107.578 408.992982,106.063167 404.522982,103.0335 C400.052982,100.003833 396.692722,96.0553333 394.442201,91.188 L393.995201,105.79 L385.353201,105.79 L385.353201,0 L395.187201,0 L395.187201,40.6281094 C397.206461,36.3893698 400.409573,32.7303333 404.796537,29.651 C409.1835,26.5716667 414.291019,25.032 420.119092,25.032 C427.005685,25.032 432.957149,26.7288151 437.973482,30.1224453 C442.989816,33.5160755 446.872352,38.292224 449.621092,44.4508906 C452.369831,50.6095573 453.744201,57.8942604 453.744201,66.305 C453.744201,74.7483333 452.369831,82.0493333 449.621092,88.208 C446.872352,94.3666667 442.989816,99.1346667 437.973482,102.512 C432.957149,105.889333 427.005685,107.578 420.119092,107.578 Z M419.623201,98.1421094 C426.939722,98.1421094 432.733649,95.286276 437.004982,89.5746094 C441.276316,83.8629427 443.411982,76.1064063 443.411982,66.305 C443.411982,56.471 441.276316,48.7063151 437.004982,43.0109453 C432.733649,37.3155755 427.005685,34.4678906 419.821092,34.4678906 C414.755092,34.4678906 410.376276,35.7759089 406.684646,38.3919453 C402.993016,41.0079818 400.153868,44.6918516 398.167201,49.4435547 C396.180534,54.1952578 395.187201,59.8157396 395.187201,66.305 C395.187201,72.6949271 396.180534,78.2824271 398.167201,83.0675 C400.153868,87.8525729 402.976331,91.561276 406.634592,94.1936094 C410.292852,96.8259427 414.622388,98.1421094 419.623201,98.1421094 Z" id="Shape"></path>
            <path d="M463.700339,105.79 L463.700339,26.82 L472.24223,26.82 L472.88712,48.3761094 L471.49723,47.68 C472.755969,40.5947396 475.082154,35.3467578 478.475784,31.9360547 C481.869414,28.5253516 486.529933,26.82 492.457339,26.82 L499.36023,26.82 L499.36023,36.356 L492.159339,36.356 C488.218599,36.356 484.865711,37.2251667 482.100675,38.9635 C479.335638,40.7018333 477.216657,43.1603333 475.74373,46.339 C474.270802,49.5176667 473.534339,53.3086302 473.534339,57.7118906 L473.534339,105.79 L463.700339,105.79 Z" id="Path"></path>
            <path d="M525.259431,107.578 C517.312764,107.578 510.955431,105.673982 506.187431,101.865945 C501.419431,98.0579089 499.035431,92.8432969 499.035431,86.2221094 C499.035431,79.7312969 501.113283,74.5904089 505.268986,70.7994453 C509.424689,67.0084818 515.541837,64.368 523.620431,62.878 L552.873322,57.4138906 C552.873322,49.5339635 551.176507,43.7396484 547.782876,40.0309453 C544.389246,36.3222422 539.265431,34.4678906 532.411431,34.4678906 C526.352098,34.4678906 521.534431,35.8919271 517.958431,38.74 C514.382431,41.5880729 512.014728,45.6607396 510.855322,50.958 L500.376431,50.1128906 C501.833837,42.464224 505.335337,36.3719089 510.880931,31.8359453 C516.426525,27.2999818 523.603358,25.032 532.411431,25.032 C542.212837,25.032 549.712504,27.8133333 554.910431,33.376 C560.108358,38.9386667 562.707322,46.8853333 562.707322,57.216 L562.707322,90.1938906 C562.707322,92.8107031 563.129488,94.5909427 563.973822,95.5346094 C564.818155,96.478276 566.151395,96.9501094 567.97354,96.9501094 L570.35754,96.9501094 L570.35754,105.79 C569.960207,105.889333 569.405337,105.955685 568.692931,105.989055 C567.980525,106.022424 567.226988,106.039109 566.432322,106.039109 C563.320395,106.039109 560.746264,105.500924 558.709931,104.424555 C556.673598,103.348185 555.175449,101.560185 554.215486,99.0605547 C553.255522,96.5609245 552.77554,93.1420729 552.77554,88.804 L554.065322,89.0018906 C553.171322,92.4133698 551.35034,95.5427578 548.602376,98.3900547 C545.854413,101.237352 542.452246,103.4805 538.395876,105.1195 C534.339507,106.7585 529.960692,107.578 525.259431,107.578 Z M526.153431,98.7381094 C531.584171,98.7381094 536.294356,97.6535911 540.283986,95.4845547 C544.273616,93.3155182 547.369246,90.3603516 549.570876,86.6190547 C551.772507,82.8777578 552.873322,78.672776 552.873322,74.0041094 L552.873322,66.1071094 L525.65754,71.222 C519.99554,72.2820729 515.864671,73.9544427 513.264931,76.2391094 C510.665192,78.523776 509.365322,81.5534427 509.365322,85.3281094 C509.365322,89.5994427 510.847173,92.902276 513.810876,95.2366094 C516.77458,97.5709427 520.888764,98.7381094 526.153431,98.7381094 Z" id="Shape"></path>
        </g>
        <path d="M17.687906,122.044907 L3.5,107.820684 L17.6029485,93.6816355 C25.3510745,85.9136766 31.7738631,79.5425875 31.8758121,79.5425875 C31.9607696,79.5425875 38.3835582,85.9136766 46.1486757,93.6816355 L60.2516242,107.820684 L74.3545727,93.6816355 L88.4575212,79.5425875 L74.2696152,65.3183645 L60.0817091,51.0941414 L74.2696152,36.8699184 L88.4575212,22.6456954 L102.645427,36.8699184 L116.833333,51.0941414 L102.67941,65.2842945 L88.5424788,79.4574125 L102.696402,93.6475655 L116.833333,107.820684 L130.987256,93.6475655 L145.124188,79.4574125 L159.312094,93.6816355 L173.5,107.905859 L159.312094,122.130082 L145.124188,136.354305 L130.936282,122.130082 L116.748376,107.905859 L102.594453,122.096012 L88.4575212,136.26913 L74.3035982,122.096012 L60.1666667,107.905859 L46.0127436,122.096012 L31.8758121,136.26913 L17.687906,122.044907 Z" id="Path-Copy" fill="#FF4F00" fill-rule="nonzero" transform="translate(88.5, 79.5) scale(-1, 1) rotate(45) translate(-88.5, -79.5)"></path>
    </g>
</svg>