<?xml version="1.0" encoding="UTF-8"?>
<svg width="257px" height="256px" viewBox="0 0 257 256" version="1.1" xmlns="http://www.w3.org/2000/svg" xmlns:xlink="http://www.w3.org/1999/xlink">
    <title>Artboard Copy 4</title>
    <g id="Artboard-Copy-4" stroke="none" stroke-width="1" fill="none" fill-rule="evenodd">
        <path d="M13.0269865,156.878652 L-5,138.865169 L12.9190405,120.959551 C22.7637181,111.122247 30.9244378,103.053933 31.053973,103.053933 C31.161919,103.053933 39.3226387,111.122247 49.1889055,120.959551 L67.107946,138.865169 L85.0269865,120.959551 L102.946027,103.053933 L84.9190405,85.0404494 L66.892054,67.0269663 L84.9190405,49.0134831 L102.946027,31 L120.973013,49.0134831 L139,67.0269663 L121.016192,84.9973034 L103.053973,102.946067 L121.037781,120.916404 L139,138.865169 L156.983808,120.916404 L174.946027,102.946067 L192.973013,120.959551 L211,138.973034 L192.973013,156.986517 L174.946027,175 L156.91904,156.986517 L138.892054,138.973034 L120.908246,156.943371 L102.946027,174.892135 L84.9622189,156.943371 L67,138.973034 L49.0161919,156.943371 L31.053973,174.892135 L13.0269865,156.878652 Z" id="Path" fill="#FF4F00" fill-rule="nonzero" transform="translate(103, 103) scale(-1, 1) rotate(45) translate(-103, -103)"></path>
    </g>
</svg>