<svg width="616" height="115" viewBox="0 0 616 115" fill="none" xmlns="http://www.w3.org/2000/svg">
<path d="M76 35C80.9706 35 85 30.9706 85 26C85 21.0294 80.9706 17 76 17C71.0294 17 67 21.0294 67 26C67 30.9706 71.0294 35 76 35Z" fill="black"/>
<path d="M55.6466 35.9696V46.8175L64.0745 49.41C66.1264 50.2393 67.4676 52.2114 67.4676 54.405V80.39C67.4676 82.1879 66.6353 83.8877 65.2076 85.0051L56 91C55.2253 91.6046 55 92.5 55 92.9598V95.8562C55 98.6956 57.3304 101 60.2018 101H90.8203C95.2442 101 98.9671 97.727 99.4825 93.384L105.968 38.9325C106.384 35.4252 102.671 32.877 99.4985 34.5009C91.7006 38.4956 80.8233 43.9908 74.0562 43.8294C66.5752 43.6489 60.4803 38.3342 57.5449 35.2257C56.8662 34.5072 55.6466 34.9883 55.6466 35.9728V35.9696Z" fill="#040000"/>
<path d="M10.4012 46.8684L6.04217 84.0085C5.6479 87.3562 8.06866 90.3174 11.2008 90.3174H39.7536L37.8457 100.61C37.7519 101.119 38.2813 101.493 38.6756 101.193L61.9072 83.4941C63.3547 82.3911 64.2149 80.5983 64.2149 78.6866V56.1266C64.2149 53.4181 62.42 51.0991 59.9496 50.6115L16.4945 42.0579C13.5609 41.4811 10.7789 43.6782 10.404 46.8684H10.4012Z" fill="#040000"/>
<path d="M20.7223 57.4377C19.6172 59.0586 18.07 63.494 20.7223 68.2682" stroke="white" stroke-width="1.5" stroke-linecap="square"/>
<rect x="17.0515" y="61.7377" width="2.69498" height="4.4206" rx="1.34749" transform="rotate(-3.56167 17.0515 61.7377)" fill="white"/>
<rect x="35.176" y="60.9746" width="2.65236" height="6.18884" rx="1.32618" fill="white"/>
<path d="M54.6267 58.764C55.7319 60.3849 57.2791 64.8202 54.6267 69.5944" stroke="white" stroke-width="1.5" stroke-linecap="square"/>
<rect width="2.69498" height="4.4206" rx="1.34749" transform="matrix(-0.998069 -0.0621229 -0.0621229 0.998069 58.2975 63.0639)" fill="white"/>
<rect width="2.65236" height="6.18884" rx="1.32618" transform="matrix(-1 0 0 1 46.2275 60.9746)" fill="white"/>
<path d="M16.5067 31.8623C21.4562 25.1012 28.0448 19.741 35.6384 16.2972C43.232 12.8534 51.5751 11.442 59.8648 12.1988L59.5058 16.2135C51.8979 15.5189 44.2412 16.8142 37.2723 19.9747C30.3034 23.1352 24.2569 28.0545 19.7145 34.2593L16.5067 31.8623Z" fill="black"/>
<path d="M156.028 80.85C152.974 80.85 150.094 80.2833 147.386 79.15C144.71 77.9852 142.349 76.3954 140.303 74.3806C138.288 72.3657 136.698 70.0204 135.533 67.3444C134.4 64.6685 133.833 61.8037 133.833 58.75C133.833 55.6963 134.4 52.8315 135.533 50.1556C136.698 47.4796 138.288 45.1343 140.303 43.1194C142.349 41.1046 144.71 39.5306 147.386 38.3972C150.094 37.2324 152.974 36.65 156.028 36.65C159.05 36.65 161.883 37.2167 164.528 38.35C167.172 39.4519 169.502 40.9787 171.517 42.9306L169.958 49.4472C168.51 47.1176 166.558 45.2602 164.103 43.875C161.679 42.4583 158.987 41.75 156.028 41.75C152.911 41.75 150.094 42.5213 147.575 44.0639C145.088 45.575 143.105 47.6213 141.625 50.2028C140.145 52.7528 139.406 55.6019 139.406 58.75C139.406 61.8667 140.145 64.7157 141.625 67.2972C143.105 69.8787 145.088 71.9407 147.575 73.4833C150.094 74.9944 152.911 75.75 156.028 75.75C159.019 75.75 161.726 75.0417 164.15 73.625C166.574 72.2083 168.51 70.3509 169.958 68.0528L171.517 74.5694C169.502 76.4898 167.172 78.0167 164.528 79.15C161.883 80.2833 159.05 80.85 156.028 80.85ZM189.612 80.5667C186.873 80.5667 184.371 79.9056 182.104 78.5833C179.837 77.2611 178.027 75.4824 176.673 73.2472C175.351 71.012 174.69 68.5407 174.69 65.8333C174.69 63.0944 175.351 60.6231 176.673 58.4194C178.027 56.1843 179.837 54.4056 182.104 53.0833C184.371 51.7611 186.873 51.1 189.612 51.1C192.383 51.1 194.885 51.7611 197.121 53.0833C199.387 54.4056 201.182 56.1843 202.504 58.4194C203.858 60.6231 204.534 63.0944 204.534 65.8333C204.534 68.5407 203.858 71.012 202.504 73.2472C201.182 75.4824 199.387 77.2611 197.121 78.5833C194.885 79.9056 192.383 80.5667 189.612 80.5667ZM189.612 75.75C191.438 75.75 193.091 75.3093 194.571 74.4278C196.05 73.5148 197.231 72.3185 198.112 70.8389C198.994 69.3278 199.434 67.6593 199.434 65.8333C199.434 64.0074 198.994 62.3546 198.112 60.875C197.231 59.3639 196.05 58.1676 194.571 57.2861C193.091 56.3731 191.438 55.9167 189.612 55.9167C187.786 55.9167 186.134 56.3731 184.654 57.2861C183.174 58.1676 181.994 59.3639 181.112 60.875C180.231 62.3546 179.79 64.0074 179.79 65.8333C179.79 67.6593 180.231 69.3278 181.112 70.8389C181.994 72.3185 183.174 73.5148 184.654 74.4278C186.134 75.3093 187.786 75.75 189.612 75.75ZM210.243 80V34.6667H215.343V80H210.243ZM223.028 80V34.6667H228.128V80H223.028ZM247.948 80.3778C245.367 80.3778 243.006 79.7324 240.865 78.4417C238.724 77.1194 237.008 75.3565 235.718 73.1528C234.458 70.9491 233.829 68.5093 233.829 65.8333C233.829 63.1574 234.458 60.7176 235.718 58.5139C237.008 56.3102 238.724 54.563 240.865 53.2722C243.006 51.95 245.367 51.2889 247.948 51.2889C249.9 51.2889 251.726 51.6509 253.426 52.375C255.157 53.0991 256.653 54.1065 257.912 55.3972V51.6667H262.634V80H257.912V76.2694C256.653 77.5287 255.157 78.5361 253.426 79.2917C251.726 80.0157 249.9 80.3778 247.948 80.3778ZM248.609 75.75C250.404 75.75 252.025 75.3093 253.473 74.4278C254.953 73.5148 256.118 72.3185 256.968 70.8389C257.849 69.3278 258.29 67.6593 258.29 65.8333C258.29 64.0074 257.849 62.3546 256.968 60.875C256.118 59.3639 254.953 58.1676 253.473 57.2861C252.025 56.3731 250.404 55.9167 248.609 55.9167C246.815 55.9167 245.178 56.3731 243.698 57.2861C242.25 58.1676 241.085 59.3639 240.204 60.875C239.354 62.3546 238.929 64.0074 238.929 65.8333C238.929 67.6593 239.354 69.3278 240.204 70.8389C241.085 72.3185 242.25 73.5148 243.698 74.4278C245.178 75.3093 246.815 75.75 248.609 75.75ZM284.998 80.3778C283.046 80.3778 281.22 80.0157 279.52 79.2917C277.82 78.5361 276.324 77.5287 275.034 76.2694V80H270.311V34.6667H275.411V55.0194C276.671 53.8546 278.119 52.9417 279.756 52.2806C281.393 51.6194 283.14 51.2889 284.998 51.2889C287.611 51.2889 289.972 51.95 292.081 53.2722C294.222 54.563 295.922 56.3102 297.181 58.5139C298.472 60.7176 299.117 63.1574 299.117 65.8333C299.117 68.5093 298.472 70.9491 297.181 73.1528C295.922 75.3565 294.222 77.1194 292.081 78.4417C289.972 79.7324 287.611 80.3778 284.998 80.3778ZM284.336 75.75C286.131 75.75 287.752 75.3093 289.2 74.4278C290.68 73.5148 291.845 72.3185 292.695 70.8389C293.576 69.3278 294.017 67.6593 294.017 65.8333C294.017 64.0074 293.576 62.3546 292.695 60.875C291.845 59.3639 290.68 58.1676 289.2 57.2861C287.752 56.3731 286.131 55.9167 284.336 55.9167C282.542 55.9167 280.905 56.3731 279.425 57.2861C277.977 58.1676 276.812 59.3639 275.931 60.875C275.081 62.3546 274.656 64.0074 274.656 65.8333C274.656 67.6593 275.081 69.3278 275.931 70.8389C276.812 72.3185 277.977 73.5148 279.425 74.4278C280.905 75.3093 282.542 75.75 284.336 75.75ZM317.75 80.5667C315.011 80.5667 312.508 79.9056 310.241 78.5833C307.975 77.2611 306.165 75.4824 304.811 73.2472C303.489 71.012 302.827 68.5407 302.827 65.8333C302.827 63.0944 303.489 60.6231 304.811 58.4194C306.165 56.1843 307.975 54.4056 310.241 53.0833C312.508 51.7611 315.011 51.1 317.75 51.1C320.52 51.1 323.023 51.7611 325.258 53.0833C327.525 54.4056 329.319 56.1843 330.641 58.4194C331.995 60.6231 332.672 63.0944 332.672 65.8333C332.672 68.5407 331.995 71.012 330.641 73.2472C329.319 75.4824 327.525 77.2611 325.258 78.5833C323.023 79.9056 320.52 80.5667 317.75 80.5667ZM317.75 75.75C319.576 75.75 321.228 75.3093 322.708 74.4278C324.188 73.5148 325.368 72.3185 326.25 70.8389C327.131 69.3278 327.572 67.6593 327.572 65.8333C327.572 64.0074 327.131 62.3546 326.25 60.875C325.368 59.3639 324.188 58.1676 322.708 57.2861C321.228 56.3731 319.576 55.9167 317.75 55.9167C315.924 55.9167 314.271 56.3731 312.791 57.2861C311.312 58.1676 310.131 59.3639 309.25 60.875C308.368 62.3546 307.927 64.0074 307.927 65.8333C307.927 67.6593 308.368 69.3278 309.25 70.8389C310.131 72.3185 311.312 73.5148 312.791 74.4278C314.271 75.3093 315.924 75.75 317.75 75.75ZM338.381 80V51.6667H343.103V56.8611C344.11 55.1926 345.448 53.8704 347.117 52.8944C348.785 51.887 350.768 51.3833 353.067 51.3833L354.342 56.4833C353.743 56.2944 353.051 56.2 352.264 56.2C349.619 56.2 347.494 57.05 345.889 58.75C344.283 60.4185 343.481 62.8111 343.481 65.9278V80H338.381ZM369.477 80.3778C366.895 80.3778 364.534 79.7324 362.394 78.4417C360.253 77.1194 358.537 75.3565 357.246 73.1528C355.987 70.9491 355.357 68.5093 355.357 65.8333C355.357 63.1574 355.987 60.7176 357.246 58.5139C358.537 56.3102 360.253 54.563 362.394 53.2722C364.534 51.95 366.895 51.2889 369.477 51.2889C371.429 51.2889 373.255 51.6509 374.955 52.375C376.686 53.0991 378.182 54.1065 379.441 55.3972V51.6667H384.163V80H379.441V76.2694C378.182 77.5287 376.686 78.5361 374.955 79.2917C373.255 80.0157 371.429 80.3778 369.477 80.3778ZM370.138 75.75C371.932 75.75 373.554 75.3093 375.002 74.4278C376.482 73.5148 377.646 72.3185 378.496 70.8389C379.378 69.3278 379.819 67.6593 379.819 65.8333C379.819 64.0074 379.378 62.3546 378.496 60.875C377.646 59.3639 376.482 58.1676 375.002 57.2861C373.554 56.3731 371.932 55.9167 370.138 55.9167C368.344 55.9167 366.707 56.3731 365.227 57.2861C363.779 58.1676 362.614 59.3639 361.732 60.875C360.882 62.3546 360.457 64.0074 360.457 65.8333C360.457 67.6593 360.882 69.3278 361.732 70.8389C362.614 72.3185 363.779 73.5148 365.227 74.4278C366.707 75.3093 368.344 75.75 370.138 75.75ZM395.146 80V55.9167H388.724V51.6667H395.287V42.2222H400.104V51.6667H407.14V55.9167H400.246V80H395.146ZM411.73 80V51.6667H416.83V80H411.73ZM414.28 46.5667C413.336 46.5667 412.533 46.2361 411.872 45.575C411.211 44.9139 410.88 44.1111 410.88 43.1667C410.88 42.1907 411.211 41.388 411.872 40.7583C412.533 40.0972 413.336 39.7667 414.28 39.7667C415.256 39.7667 416.059 40.0972 416.689 40.7583C417.35 41.388 417.68 42.1907 417.68 43.1667C417.68 44.1111 417.35 44.9139 416.689 45.575C416.059 46.2361 415.256 46.5667 414.28 46.5667ZM434.856 81.4167L420.548 51.6667H426.356L432.118 63.9444C432.653 65.0463 433.156 66.1324 433.629 67.2028C434.101 68.2731 434.557 69.5796 434.998 71.1222C435.47 69.5796 435.943 68.2731 436.415 67.2028C436.918 66.1009 437.422 65.0148 437.926 63.9444L443.734 51.6667H449.165L434.856 81.4167ZM465.016 80.5667C462.056 80.5667 459.396 79.9056 457.035 78.5833C454.706 77.2611 452.864 75.4667 451.51 73.2C450.188 70.9019 449.527 68.3519 449.527 65.55C449.527 62.8741 450.172 60.45 451.463 58.2778C452.754 56.0741 454.485 54.3269 456.657 53.0361C458.861 51.7454 461.285 51.1 463.93 51.1C466.543 51.1 468.935 51.7296 471.107 52.9889C473.28 54.2167 475.011 55.8852 476.302 57.9944C477.593 60.1037 478.238 62.4963 478.238 65.1722V67.25H459.727C458.908 67.25 458.074 67.2185 457.224 67.1556C456.374 67.0926 455.54 66.9981 454.721 66.8722C455.068 69.3907 456.201 71.5 458.121 73.2C460.073 74.9 462.387 75.75 465.063 75.75C466.857 75.75 468.526 75.3407 470.069 74.5222C471.611 73.7037 472.855 72.6176 473.799 71.2639L475.216 77.0722C473.862 78.1741 472.304 79.0398 470.541 79.6694C468.809 80.2676 466.968 80.5667 465.016 80.5667ZM454.58 63.425C456.28 63.1417 457.995 63 459.727 63H469.124C469.817 63 470.494 63.0315 471.155 63.0944C471.847 63.1259 472.54 63.1731 473.232 63.2361C472.792 61.0324 471.69 59.2222 469.927 57.8056C468.164 56.3574 466.165 55.6333 463.93 55.6333C461.631 55.6333 459.617 56.4046 457.885 57.9472C456.154 59.4583 455.052 61.2843 454.58 63.425ZM516.917 80.85C513.832 80.85 510.951 80.2833 508.275 79.15C505.6 77.9852 503.238 76.3954 501.192 74.3806C499.177 72.3343 497.603 69.9889 496.47 67.3444C495.337 64.6685 494.77 61.8037 494.77 58.75C494.77 55.6963 495.337 52.8472 496.47 50.2028C497.635 47.5269 499.225 45.1815 501.239 43.1667C503.286 41.1204 505.647 39.5306 508.323 38.3972C510.999 37.2324 513.879 36.65 516.964 36.65C519.987 36.65 522.82 37.2167 525.464 38.35C528.109 39.4519 530.438 40.9787 532.453 42.9306L530.895 49.4472C529.447 47.1176 527.495 45.2602 525.039 43.875C522.615 42.4583 519.924 41.75 516.964 41.75C513.848 41.75 511.03 42.5213 508.512 44.0639C506.025 45.575 504.041 47.6213 502.562 50.2028C501.082 52.7528 500.342 55.6019 500.342 58.75C500.342 61.8352 501.066 64.6685 502.514 67.25C503.994 69.8315 505.977 71.8935 508.464 73.4361C510.983 74.9787 513.8 75.75 516.917 75.75C518.68 75.75 520.349 75.5454 521.923 75.1361C523.528 74.6954 524.992 74.0815 526.314 73.2944V62.15H514.603V57.3333H531.509V76.0333C529.588 77.6389 527.353 78.8509 524.803 79.6694C522.285 80.4565 519.656 80.85 516.917 80.85ZM536.894 94.1667L546.103 75.8444L534.108 51.6667H539.869L545.914 63.9444C546.449 65.0463 546.968 66.1324 547.472 67.2028C547.976 68.2731 548.479 69.5639 548.983 71.075C549.518 69.5639 550.022 68.2731 550.494 67.2028C550.998 66.1009 551.533 65.0148 552.1 63.9444L558.239 51.6667H563.669L542.419 94.1667H536.894ZM567.394 80V51.6667H572.117V55.7278C573.156 54.1852 574.462 53.0361 576.036 52.2806C577.642 51.4935 579.326 51.1 581.089 51.1C583.009 51.1 584.772 51.5565 586.378 52.4694C587.983 53.3509 589.274 54.5944 590.25 56.2C591.352 54.5 592.768 53.225 594.5 52.375C596.263 51.525 598.12 51.1 600.072 51.1C602.213 51.1 604.165 51.6037 605.928 52.6111C607.722 53.6185 609.139 55.0352 610.178 56.8611C611.248 58.6556 611.783 60.7806 611.783 63.2361V80H606.683V63.85C606.683 61.2685 605.943 59.3167 604.464 57.9944C603.016 56.6407 601.331 55.9639 599.411 55.9639C598.215 55.9639 597.05 56.2315 595.917 56.7667C594.815 57.3019 593.902 58.1361 593.178 59.2694C592.485 60.4028 592.139 61.8824 592.139 63.7083V80H587.039V63.85C587.039 62.0556 586.677 60.5759 585.953 59.4111C585.26 58.2463 584.347 57.3806 583.214 56.8139C582.112 56.2157 580.963 55.9167 579.767 55.9167C578.602 55.9167 577.453 56.1843 576.319 56.7194C575.218 57.2546 574.305 58.0889 573.581 59.2222C572.856 60.3556 572.494 61.8509 572.494 63.7083V80H567.394Z" fill="black"/>
</svg>
